<svg xmlns="http://www.w3.org/2000/svg" xmlns:xlink="http://www.w3.org/1999/xlink" width="2209.854" height="465" viewBox="0 0 2209.854 465">
  <defs>
    <clipPath id="clip-path">
      <rect id="Rectangle_9305" data-name="Rectangle 9305" width="334" height="465" transform="translate(-1012 -19783)" fill="#fff"/>
    </clipPath>
    <linearGradient id="linear-gradient" x1="0.5" x2="0.5" y2="1" gradientUnits="objectBoundingBox">
      <stop offset="0" stop-color="#f4a261"/>
      <stop offset="1" stop-color="#d64420"/>
    </linearGradient>
  </defs>
  <g id="Group_12351" data-name="Group 12351" transform="translate(1012 19783)">
    <g id="Group_12344" data-name="Group 12344" transform="translate(-604.391 -19742.383)">
      <path id="Path_10591" data-name="Path 10591" d="M66.424,3.61c38.988,0,59.926-23.1,59.926-64.258,0-31.407-10.469-51.623-43.681-80.864-25.992-22.743-34.3-36.1-34.3-54.511,0-17.328,7.22-24.187,19.855-24.187s19.855,6.859,19.855,24.909v13h37.544v-10.469c0-40.432-19.133-63.536-57.76-63.536s-59.2,23.1-59.2,62.814c0,28.88,10.83,49.457,44.042,78.7C78.7-92.055,86.64-78.7,86.64-57.76c0,18.772-7.942,25.27-20.577,25.27s-20.577-6.5-20.577-24.548V-74.366H7.942v14.44C7.942-19.494,27.436,3.61,66.424,3.61ZM149.093,0H188.8V-80.5l15.884-32.129L238.26,0h41.515L231.762-159.923,279.053-252.7h-39.71L188.8-146.205V-252.7h-39.71ZM298.547,0h39.71V-252.7h-39.71Zm69.312,0H472.91V-36.1H407.569V-252.7h-39.71ZM492.043,0H597.094V-36.1H531.753V-252.7h-39.71ZM667.85,3.61c38.988,0,59.926-23.1,59.926-64.258,0-31.407-10.469-51.623-43.681-80.864-25.992-22.743-34.295-36.1-34.295-54.511,0-17.328,7.22-24.187,19.855-24.187s19.855,6.859,19.855,24.909v13h37.544v-10.469c0-40.432-19.133-63.536-57.76-63.536s-59.2,23.1-59.2,62.814c0,28.88,10.83,49.457,44.042,78.7,25.992,22.743,33.934,36.1,33.934,57.038,0,18.772-7.942,25.27-20.577,25.27s-20.577-6.5-20.577-24.548V-74.366H609.368v14.44C609.368-19.494,628.862,3.61,667.85,3.61Z" transform="translate(0.391 324.693)" fill="#35375c"/>
    </g>
    <path id="Path_10592" data-name="Path 10592" d="M54.549-239.021h192.5l-20.745,67.283h-7.1a114.089,114.089,0,0,0,3.551-26.352q0-13.643-8.41-20.559-6.354-5.233-32.707-5.233h-20L111.553-49.322q-9.532,32.894-9.532,40.556A14.107,14.107,0,0,0,108,2.916q5.981,4.579,21.119,4.579h8.6l-2.243,6.915H25.207l2.056-6.915h4.859q14.578,0,22.428-4.672,5.42-3.177,9.812-11.494T76.6-43.9l52.518-179.981H113.982q-21.867,0-35.23,5.607a52.139,52.139,0,0,0-21.587,16.26q-8.223,10.653-13.457,30.277H36.794Zm141.139,94.756,64.479-10.466L233.255-63.9q32.707-55.882,59.433-78.123,15.139-12.709,24.67-12.709,6.168,0,9.719,3.644t3.551,10.56a47.08,47.08,0,0,1-6.354,23.549q-4.485,8.41-12.9,8.41a10.6,10.6,0,0,1-7.382-2.8q-3.084-2.8-3.831-8.6-.374-3.551-1.682-4.672a4.851,4.851,0,0,0-3.551-1.5,12.522,12.522,0,0,0-5.981,1.5q-4.859,2.617-14.765,14.578-15.512,18.316-33.641,47.472a140.9,140.9,0,0,0-13.457,27.848q-7.85,21.306-8.971,25.6L212.136,14.41h-28.6l34.576-116.063q5.981-20.185,5.981-28.782a6.9,6.9,0,0,0-2.8-5.607q-3.738-2.99-9.905-2.99A109.168,109.168,0,0,0,197-137.35Zm294.021-10.466L453.265-28.016l-4.112,17.008a18.817,18.817,0,0,0-.561,4.112,7.926,7.926,0,0,0,1.869,5.233A4.794,4.794,0,0,0,454.2.019q2.43,0,6.354-2.99,7.289-5.42,19.437-22.428l6.354,4.486q-12.9,19.437-26.539,29.623T434.575,18.9q-8.037,0-12.055-4.018T418.5,3.2q0-9.158,4.112-24.11l3.925-14.017Q402.055-2.972,381.5,9.737,366.732,18.9,352.527,18.9q-13.643,0-23.549-11.307T319.073-23.53q0-29.716,17.849-62.7t45.322-52.8q21.493-15.7,40.556-15.7,11.4,0,18.97,5.981t11.494,19.811l6.728-21.306Zm-66.535,9.719q-11.961,0-25.418,11.214-19.063,15.886-33.922,47.1T348.976-30.258q0,12.709,6.354,20.091t14.578,7.382q20.372,0,44.294-30.09,31.959-40,31.959-82.047,0-15.886-6.168-22.988T423.174-145.013Zm149.363-83.916a18.047,18.047,0,0,1,13.27,5.42,18.047,18.047,0,0,1,5.42,13.27,17.982,17.982,0,0,1-5.513,13.176,17.982,17.982,0,0,1-13.176,5.513,17.982,17.982,0,0,1-13.176-5.513,17.982,17.982,0,0,1-5.513-13.176,18.047,18.047,0,0,1,5.42-13.27A18.047,18.047,0,0,1,572.537-228.929Zm2.43,74.2L537.961-23.717q-3.738,13.27-3.738,15.886A6.766,6.766,0,0,0,536-2.972,5.61,5.61,0,0,0,540.2-1.1q2.8,0,6.728-2.99,10.653-8.41,21.493-23.923l6.541,4.3a132.314,132.314,0,0,1-29.9,32.707q-12.709,9.905-24.3,9.905-7.663,0-12.522-4.579a15.13,15.13,0,0,1-4.859-11.494q0-6.915,4.672-22.988l24.3-83.729q5.981-20.559,5.981-25.792a8.655,8.655,0,0,0-2.9-6.728q-2.9-2.617-7.943-2.617-4.112,0-17.008,2.056v-7.289Zm88.248,0L638.357-69.694q34.95-52.144,53.546-68.591t35.791-16.447a20.724,20.724,0,0,1,15.419,6.168q6.074,6.168,6.074,16.073,0,11.214-5.42,29.9L720.966-23.9q-3.925,13.643-3.925,16.634a6.586,6.586,0,0,0,1.5,4.392A4.207,4.207,0,0,0,721.713-1.1q2.243,0,5.42-2.43,9.906-7.85,21.68-23.923l5.794,3.551Q737.226.953,721.713,11.606,710.873,18.9,702.276,18.9q-6.915,0-11.027-4.205T687.137,3.383q0-8.971,6.354-30.838l21.68-75.132q4.112-14.017,4.112-21.867a8.048,8.048,0,0,0-2.43-6.074,8.3,8.3,0,0,0-5.981-2.336q-5.233,0-12.522,4.486-13.83,8.41-28.782,27.754T637.984-51.191a181.923,181.923,0,0,0-14.578,34.763L614.061,14.41H586.027l34.015-117q5.981-21.119,5.981-25.418a9.6,9.6,0,0,0-3.271-7.2,11.393,11.393,0,0,0-8.13-3.084,69.725,69.725,0,0,0-7.85.748l-7.1,1.121-1.121-6.728ZM801.177-56.05a115.736,115.736,0,0,0-1.308,15.512,38.406,38.406,0,0,0,11.774,28.315,39.089,39.089,0,0,0,28.6,11.681,63.165,63.165,0,0,0,25.885-5.513q12.429-5.513,36.912-24.39l3.925,5.42Q862.666,18.9,822.483,18.9,795.2,18.9,781.366,1.7t-13.83-37.94q0-27.848,17.194-57T827.9-138.565q25.979-16.167,53.452-16.167,19.811,0,29.343,8.037t9.532,19.063q0,15.512-12.335,29.716-16.26,18.5-47.845,29.9Q839.117-60.349,801.177-56.05Zm1.308-9.158q27.661-3.177,45.042-10.84,22.988-10.279,34.482-24.577T893.5-127.818q0-7.85-4.953-12.709t-14.111-4.859q-19.063,0-40.463,20.278T802.485-65.208Zm128.431-79.057,64.479-10.466L968.482-63.9q32.707-55.882,59.433-78.123,15.139-12.709,24.67-12.709,6.168,0,9.719,3.644t3.551,10.56a47.08,47.08,0,0,1-6.354,23.549q-4.485,8.41-12.9,8.41a10.6,10.6,0,0,1-7.382-2.8q-3.084-2.8-3.831-8.6-.374-3.551-1.682-4.672a4.851,4.851,0,0,0-3.551-1.5,12.522,12.522,0,0,0-5.981,1.5q-4.859,2.617-14.765,14.578Q993.9-91.747,975.771-62.592a140.9,140.9,0,0,0-13.456,27.848q-7.85,21.306-8.971,25.6L947.363,14.41h-28.6l34.576-116.063q5.981-20.185,5.981-28.782a6.9,6.9,0,0,0-2.8-5.607q-3.738-2.99-9.905-2.99a109.169,109.169,0,0,0-14.391,1.682Z" transform="translate(132 -19433.643)" fill="#35375c"/>
    <g id="Mask_Group_120" data-name="Mask Group 120" clip-path="url(#clip-path)">
      <g id="Group_12343" data-name="Group 12343" transform="translate(-1151.781 -19874.313)">
        <g id="Group_12334" data-name="Group 12334" transform="translate(-0.001 82.919) rotate(-9)">
          <g id="Group_12326" data-name="Group 12326" transform="translate(222.881 0) rotate(29)">
            <path id="Union_81" data-name="Union 81" d="M140.123,450.545A158.171,158.171,0,0,1,60.091,386.8,155.335,155.335,0,0,1,39.717,338.59H175.7V312.875a161.166,161.166,0,0,1-17.867.987A157.246,157.246,0,0,1,46.23,267.893a156.294,156.294,0,0,1,0-221.935,158.03,158.03,0,0,1,266.439,80.368h-98.9v20.82q5.749.738,11.408,1.888A157.748,157.748,0,0,1,338.774,241.69a156.02,156.02,0,0,1-14.556,148.828,158.569,158.569,0,0,1-184.1,60.026Z" transform="translate(0 0)" fill="url(#linear-gradient)"/>
          </g>
        </g>
        <g id="Group_12337" data-name="Group 12337">
          <g id="Group_12336" data-name="Group 12336">
            <g id="Group_12335" data-name="Group 12335" transform="translate(-0.001 82.919) rotate(-9)">
              <g id="Group_12326-2" data-name="Group 12326" transform="translate(222.881 0) rotate(29)">
                <path id="Union_81-2" data-name="Union 81" d="M140.123,450.545A158.171,158.171,0,0,1,60.091,386.8,155.335,155.335,0,0,1,39.717,338.59H175.7V312.875a161.166,161.166,0,0,1-17.867.987A157.246,157.246,0,0,1,46.23,267.893a156.294,156.294,0,0,1,0-221.935,158.03,158.03,0,0,1,266.439,80.368h-98.9v20.82q5.749.738,11.408,1.888A157.748,157.748,0,0,1,338.774,241.69a156.02,156.02,0,0,1-14.556,148.828,158.569,158.569,0,0,1-184.1,60.026Z" transform="translate(0 0)" fill="rgba(0,0,0,0.06)"/>
              </g>
            </g>
          </g>
        </g>
        <path id="Union_105" data-name="Union 105" d="M130.45,204.139c2.578-11.025,10.139-65.918-10.669-87.673C107.625,105.145,84.7,97.3,42.308,109.812a167.955,167.955,0,0,0-29.683,12.034c.388-.243-11.4,6.348-12.538,6.982,4.231-2.609,55.159-64.036,145.78-53.274,83,9.833,105.8,11.678,146.907-8.987,4.035-2.048,15.937-8.509,15.937-8.509s-.326.509-1.1,1.579c-4.789,6.6-27.665,35.43-69.342,45.8-4.6,1.151-41.024,9.6-52.743,47.26-14.643,42.532-22.958,133.11-115.084,149.424-5.441.958-19.2,1.62-19.2,1.62S112.934,279.32,130.45,204.139ZM.088,128.828c-.032.02-.061.036-.088.049Zm158.568-76.66a26.522,26.522,0,1,1,7.321,1.035A26.573,26.573,0,0,1,158.656,52.168Z" transform="translate(160.958 157.759)" fill="#fff"/>
      </g>
    </g>
  </g>
</svg>
