<svg xmlns="http://www.w3.org/2000/svg" xmlns:xlink="http://www.w3.org/1999/xlink" width="2208.587" height="465" viewBox="0 0 2208.587 465">
  <defs>
    <clipPath id="clip-path">
      <rect id="Rectangle_9305" data-name="Rectangle 9305" width="334" height="465" transform="translate(-1012 -19783)" fill="#fff"/>
    </clipPath>
    <linearGradient id="linear-gradient" x1="0.5" x2="0.5" y2="1" gradientUnits="objectBoundingBox">
      <stop offset="0" stop-color="#f4a261"/>
      <stop offset="1" stop-color="#d64420"/>
    </linearGradient>
  </defs>
  <g id="Black_Text" data-name="Black Text" transform="translate(1012 19783)">
    <g id="Group_12344" data-name="Group 12344" transform="translate(-604.391 -19742.383)">
      <path id="Path_10591" data-name="Path 10591" d="M66.424,3.61c38.988,0,59.926-23.1,59.926-64.258,0-31.407-10.469-51.623-43.681-80.864-25.992-22.743-34.3-36.1-34.3-54.511,0-17.328,7.22-24.187,19.855-24.187s19.855,6.859,19.855,24.909v13h37.544v-10.469c0-40.432-19.133-63.536-57.76-63.536s-59.2,23.1-59.2,62.814c0,28.88,10.83,49.457,44.042,78.7C78.7-92.055,86.64-78.7,86.64-57.76c0,18.772-7.942,25.27-20.577,25.27s-20.577-6.5-20.577-24.548V-74.366H7.942v14.44C7.942-19.494,27.436,3.61,66.424,3.61ZM149.093,0H188.8V-80.5l15.884-32.129L238.26,0h41.515L231.762-159.923,279.053-252.7h-39.71L188.8-146.205V-252.7h-39.71ZM298.547,0h39.71V-252.7h-39.71Zm69.312,0H472.91V-36.1H407.569V-252.7h-39.71ZM492.043,0H597.094V-36.1H531.753V-252.7h-39.71ZM667.85,3.61c38.988,0,59.926-23.1,59.926-64.258,0-31.407-10.469-51.623-43.681-80.864-25.992-22.743-34.295-36.1-34.295-54.511,0-17.328,7.22-24.187,19.855-24.187s19.855,6.859,19.855,24.909v13h37.544v-10.469c0-40.432-19.133-63.536-57.76-63.536s-59.2,23.1-59.2,62.814c0,28.88,10.83,49.457,44.042,78.7,25.992,22.743,33.934,36.1,33.934,57.038,0,18.772-7.942,25.27-20.577,25.27s-20.577-6.5-20.577-24.548V-74.366H609.368v14.44C609.368-19.494,628.862,3.61,667.85,3.61Z" transform="translate(0.391 324.693)"/>
    </g>
    <path id="Path_10592" data-name="Path 10592" d="M54.514-239.021H246.782l-20.72,67.2h-7.093a113.95,113.95,0,0,0,3.547-26.32q0-13.627-8.4-20.534-6.347-5.227-32.667-5.227H161.475L111.447-49.553q-9.52,32.854-9.52,40.507A14.09,14.09,0,0,0,107.9,2.621q5.973,4.573,21.094,4.573h8.587l-2.24,6.907H25.207L27.26,7.194h4.853q14.56,0,22.4-4.667,5.413-3.173,9.8-11.48T76.54-44.14L128.994-223.9h-15.12q-21.84,0-35.187,5.6a52.076,52.076,0,0,0-21.56,16.24q-8.213,10.64-13.44,30.24H36.78Zm140.968,94.641,64.4-10.453L233-64.113q32.667-55.814,59.361-78.027,15.12-12.693,24.64-12.693,6.16,0,9.707,3.64t3.547,10.547a47.022,47.022,0,0,1-6.347,23.52q-4.48,8.4-12.88,8.4a10.584,10.584,0,0,1-7.373-2.8q-3.08-2.8-3.827-8.587-.373-3.547-1.68-4.667a4.845,4.845,0,0,0-3.547-1.493,12.507,12.507,0,0,0-5.973,1.493q-4.853,2.613-14.747,14.56-15.494,18.294-33.6,47.414a140.723,140.723,0,0,0-13.44,27.814q-7.84,21.28-8.96,25.574L211.908,14.1h-28.56L217.881-101.82q5.973-20.16,5.973-28.747a6.9,6.9,0,0,0-2.8-5.6q-3.733-2.987-9.893-2.987a109.034,109.034,0,0,0-14.373,1.68Zm293.663-10.453-36.4,126.561-4.107,16.987a18.8,18.8,0,0,0-.56,4.107,7.917,7.917,0,0,0,1.867,5.227,4.788,4.788,0,0,0,3.733,1.68q2.427,0,6.347-2.987,7.28-5.413,19.414-22.4l6.347,4.48Q472.9-1.766,459.277,8.408t-25.2,10.173q-8.027,0-12.04-4.013T418.023,2.9q0-9.147,4.107-24.08l3.92-14Q401.6-3.259,381.063,9.434q-14.747,9.147-28.934,9.147-13.627,0-23.52-11.293t-9.893-31.08q0-29.68,17.827-62.627t45.267-52.734q21.467-15.68,40.507-15.68,11.387,0,18.947,5.973t11.48,19.787l6.72-21.28Zm-66.454,9.707q-11.947,0-25.387,11.2-19.04,15.867-33.88,47.04t-14.84,56.374q0,12.693,6.347,20.067t14.56,7.373q20.347,0,44.24-30.054,31.92-39.947,31.92-81.948,0-15.867-6.16-22.96T422.69-145.127Zm149.181-83.814a18.025,18.025,0,0,1,13.253,5.413,18.025,18.025,0,0,1,5.413,13.253,17.96,17.96,0,0,1-5.507,13.16,17.96,17.96,0,0,1-13.16,5.507,17.96,17.96,0,0,1-13.16-5.507,17.96,17.96,0,0,1-5.507-13.16,18.025,18.025,0,0,1,5.413-13.253A18.025,18.025,0,0,1,571.871-228.941Zm2.427,74.107L537.337-23.979Q533.6-10.726,533.6-8.112a6.757,6.757,0,0,0,1.773,4.853,5.6,5.6,0,0,0,4.2,1.867q2.8,0,6.72-2.987,10.64-8.4,21.467-23.894l6.533,4.293A132.152,132.152,0,0,1,544.43,8.688q-12.693,9.893-24.267,9.893-7.653,0-12.507-4.573A15.112,15.112,0,0,1,502.8,2.528q0-6.907,4.667-22.96l24.267-83.628q5.973-20.534,5.973-25.76a8.645,8.645,0,0,0-2.893-6.72q-2.893-2.613-7.933-2.613-4.107,0-16.987,2.053v-7.28Zm88.14,0L637.611-69.9q34.907-52.081,53.481-68.507t35.747-16.427a20.7,20.7,0,0,1,15.4,6.16q6.067,6.16,6.067,16.053,0,11.2-5.413,29.867L720.118-24.166Q716.2-10.539,716.2-7.552a6.578,6.578,0,0,0,1.493,4.387,4.2,4.2,0,0,0,3.173,1.773q2.24,0,5.413-2.427,9.893-7.84,21.654-23.894l5.787,3.547Q736.359.661,720.865,11.3q-10.827,7.28-19.414,7.28-6.907,0-11.013-4.2T686.331,3.088q0-8.96,6.347-30.8l21.654-75.041q4.107-14,4.107-21.84a8.038,8.038,0,0,0-2.427-6.067,8.288,8.288,0,0,0-5.973-2.333q-5.227,0-12.507,4.48-13.813,8.4-28.747,27.72T637.238-51.42a181.7,181.7,0,0,0-14.56,34.72l-9.333,30.8h-28l33.974-116.855q5.973-21.094,5.973-25.387a9.587,9.587,0,0,0-3.267-7.187,11.38,11.38,0,0,0-8.12-3.08,69.64,69.64,0,0,0-7.84.747l-7.093,1.12-1.12-6.72ZM800.232-56.273a115.593,115.593,0,0,0-1.307,15.493,38.359,38.359,0,0,0,11.76,28.28A39.042,39.042,0,0,0,839.246-.832,63.089,63.089,0,0,0,865.1-6.339q12.414-5.507,36.867-24.36l3.92,5.413q-44.24,43.867-84.374,43.867-27.254,0-41.067-17.174T766.632-36.486q0-27.814,17.173-56.934t43.12-45.267q25.947-16.147,53.387-16.147,19.787,0,29.307,8.027t9.52,19.04q0,15.493-12.32,29.68-16.24,18.48-47.787,29.867Q838.126-60.566,800.232-56.273Zm1.307-9.147q27.627-3.173,44.987-10.827,22.96-10.267,34.44-24.547t11.48-27.16q0-7.84-4.947-12.693T873.406-145.5q-19.04,0-40.414,20.254T801.539-65.42Zm128.274-78.961,64.4-10.453-26.88,90.721q32.667-55.814,59.361-78.027,15.12-12.693,24.64-12.693,6.16,0,9.707,3.64t3.547,10.547a47.023,47.023,0,0,1-6.347,23.52q-4.48,8.4-12.88,8.4a10.584,10.584,0,0,1-7.373-2.8q-3.08-2.8-3.827-8.587-.373-3.547-1.68-4.667a4.845,4.845,0,0,0-3.547-1.493,12.507,12.507,0,0,0-5.973,1.493q-4.853,2.613-14.747,14.56-15.494,18.294-33.6,47.414a140.724,140.724,0,0,0-13.44,27.814q-7.84,21.28-8.96,25.574L946.24,14.1h-28.56L952.213-101.82q5.973-20.16,5.973-28.747a6.9,6.9,0,0,0-2.8-5.6q-3.733-2.987-9.893-2.987a109.032,109.032,0,0,0-14.373,1.68Z" transform="translate(132 -19433.33)"/>
    <g id="Mask_Group_120" data-name="Mask Group 120" clip-path="url(#clip-path)">
      <g id="Group_12343" data-name="Group 12343" transform="translate(-1151.781 -19874.313)">
        <g id="Group_12334" data-name="Group 12334" transform="translate(-0.001 82.919) rotate(-9)">
          <g id="Group_12326" data-name="Group 12326" transform="translate(222.881 0) rotate(29)">
            <path id="Union_81" data-name="Union 81" d="M140.123,450.545A158.171,158.171,0,0,1,60.091,386.8,155.335,155.335,0,0,1,39.717,338.59H175.7V312.875a161.166,161.166,0,0,1-17.867.987A157.246,157.246,0,0,1,46.23,267.893a156.294,156.294,0,0,1,0-221.935,158.03,158.03,0,0,1,266.439,80.368h-98.9v20.82q5.749.738,11.408,1.888A157.748,157.748,0,0,1,338.774,241.69a156.02,156.02,0,0,1-14.556,148.828,158.569,158.569,0,0,1-184.1,60.026Z" transform="translate(0 0)" fill="url(#linear-gradient)"/>
          </g>
        </g>
        <g id="Group_12337" data-name="Group 12337">
          <g id="Group_12336" data-name="Group 12336">
            <g id="Group_12335" data-name="Group 12335" transform="translate(-0.001 82.919) rotate(-9)">
              <g id="Group_12326-2" data-name="Group 12326" transform="translate(222.881 0) rotate(29)">
                <path id="Union_81-2" data-name="Union 81" d="M140.123,450.545A158.171,158.171,0,0,1,60.091,386.8,155.335,155.335,0,0,1,39.717,338.59H175.7V312.875a161.166,161.166,0,0,1-17.867.987A157.246,157.246,0,0,1,46.23,267.893a156.294,156.294,0,0,1,0-221.935,158.03,158.03,0,0,1,266.439,80.368h-98.9v20.82q5.749.738,11.408,1.888A157.748,157.748,0,0,1,338.774,241.69a156.02,156.02,0,0,1-14.556,148.828,158.569,158.569,0,0,1-184.1,60.026Z" transform="translate(0 0)" fill="rgba(0,0,0,0.06)"/>
              </g>
            </g>
          </g>
        </g>
        <path id="Union_105" data-name="Union 105" d="M130.45,204.139c2.578-11.025,10.139-65.918-10.669-87.673C107.625,105.145,84.7,97.3,42.308,109.812a167.955,167.955,0,0,0-29.683,12.034c.388-.243-11.4,6.348-12.538,6.982,4.231-2.609,55.159-64.036,145.78-53.274,83,9.833,105.8,11.678,146.907-8.987,4.035-2.048,15.937-8.509,15.937-8.509s-.326.509-1.1,1.579c-4.789,6.6-27.665,35.43-69.342,45.8-4.6,1.151-41.024,9.6-52.743,47.26-14.643,42.532-22.958,133.11-115.084,149.424-5.441.958-19.2,1.62-19.2,1.62S112.934,279.32,130.45,204.139ZM.088,128.828c-.032.02-.061.036-.088.049Zm158.568-76.66a26.522,26.522,0,1,1,7.321,1.035A26.573,26.573,0,0,1,158.656,52.168Z" transform="translate(160.958 157.759)" fill="#fff"/>
      </g>
    </g>
  </g>
</svg>
